<?xml version="1.0" standalone="no"?>
<!DOCTYPE svg PUBLIC "-//W3C//DTD SVG 20010904//EN"
 "http://www.w3.org/TR/2001/REC-SVG-20010904/DTD/svg10.dtd">
<svg version="1.0" xmlns="http://www.w3.org/2000/svg"
 width="2048.000000pt" height="2048.000000pt" viewBox="0 0 2048.000000 2048.000000"
 preserveAspectRatio="xMidYMid meet">
<metadata>
Created by potrace 1.11, written by Peter Selinger 2001-2013
</metadata>
<g transform="translate(0.000000,2048.000000) scale(0.100000,-0.100000)"
fill="#000000" stroke="none">
<path d="M2182 20455 c-909 -173 -1645 -841 -1900 -1725 -37 -125 -66 -278
-82 -415 -8 -73 -10 -2278 -8 -8120 l3 -8020 27 -136 c36 -178 87 -353 143
-492 242 -592 703 -1067 1286 -1323 192 -84 395 -143 624 -181 106 -17 426
-18 8150 -18 7751 0 8044 1 8150 18 338 57 611 154 883 316 424 251 773 635
977 1075 l45 97 -2 8737 -3 8737 -68 135 c-338 670 -941 1137 -1687 1306
l-125 29 -8145 2 -8145 1 -123 -23z m16317 -391 c506 -73 949 -321 1277 -714
268 -321 426 -707 464 -1138 7 -80 10 -2603 7 -8037 l-3 -7920 -21 -110 c-87
-458 -267 -808 -573 -1116 -349 -351 -804 -555 -1314 -590 -101 -6 -2773 -9
-8021 -7 -7526 3 -7875 4 -7975 21 -398 68 -728 218 -1017 461 -399 334 -659
825 -713 1346 -14 135 -14 15866 0 15998 56 526 313 1012 708 1343 308 257
654 411 1057 468 33 5 3650 9 8039 10 7163 1 7989 -1 8085 -15z"/>
<path d="M6020 10345 l0 -7015 1370 0 1370 0 2 2257 3 2258 1565 -3 c1625 -4
1775 -1 2089 38 1516 188 2850 1101 3588 2455 466 856 657 1868 537 2845 -155
1264 -808 2408 -1819 3187 -665 513 -1448 839 -2275 948 -301 39 -259 38
-3387 42 l-3043 4 0 -7016z m5989 4409 c557 -28 1123 -320 1484 -767 108 -133
172 -234 253 -392 439 -869 216 -1931 -537 -2560 -231 -193 -534 -349 -816
-420 -253 -63 -124 -59 -1960 -62 l-1673 -3 0 2110 0 2111 1573 -6 c864 -3
1619 -8 1676 -11z"/>
</g>
</svg>
